<svg width="1920" height="211" viewBox="0 0 1920 211" fill="none" xmlns="http://www.w3.org/2000/svg">
<rect x="1779.2" y="211.4" width="70.6" height="70.6" transform="rotate(-90 1779.2 211.4)" fill="white"/>
<rect x="1849.8" y="140.8" width="70.6" height="70.6" transform="rotate(-90 1849.8 140.8)" fill="white"/>
<rect x="1779.2" y="70.2003" width="70.6" height="70.6" transform="rotate(-90 1779.2 70.2003)" fill="white"/>
<rect x="1638" y="211.4" width="70.6" height="70.6" transform="rotate(-90 1638 211.4)" fill="white"/>
<rect x="1708.6" y="140.8" width="70.6" height="70.6" transform="rotate(-90 1708.6 140.8)" fill="white"/>
<rect x="1638" y="70.1998" width="70.6" height="70.6" transform="rotate(-90 1638 70.1998)" fill="white"/>
<rect x="1497.2" y="211.4" width="70.6" height="70.6" transform="rotate(-90 1497.2 211.4)" fill="white"/>
<rect x="1567.8" y="140.8" width="70.6" height="70.6" transform="rotate(-90 1567.8 140.8)" fill="white"/>
<rect x="1497.2" y="70.2003" width="70.6" height="70.6" transform="rotate(-90 1497.2 70.2003)" fill="white"/>
<rect x="1356" y="211.4" width="70.6" height="70.6" transform="rotate(-90 1356 211.4)" fill="white"/>
<rect x="1426.6" y="140.8" width="70.6" height="70.6" transform="rotate(-90 1426.6 140.8)" fill="white"/>
<rect x="1356" y="70.1998" width="70.6" height="70.6" transform="rotate(-90 1356 70.1998)" fill="white"/>
<rect x="1215.2" y="211.4" width="70.6" height="70.6" transform="rotate(-90 1215.2 211.4)" fill="white"/>
<rect x="1285.8" y="140.8" width="70.6" height="70.6" transform="rotate(-90 1285.8 140.8)" fill="white"/>
<rect x="1215.2" y="70.2003" width="70.6" height="70.6" transform="rotate(-90 1215.2 70.2003)" fill="white"/>
<rect x="1074" y="211.4" width="70.6" height="70.6" transform="rotate(-90 1074 211.4)" fill="white"/>
<rect x="1144.6" y="140.8" width="70.6" height="70.6" transform="rotate(-90 1144.6 140.8)" fill="white"/>
<rect x="1074" y="70.1998" width="70.6" height="70.6" transform="rotate(-90 1074 70.1998)" fill="white"/>
<rect x="933.195" y="211.4" width="70.6" height="70.6" transform="rotate(-90 933.195 211.4)" fill="white"/>
<rect x="1003.8" y="140.8" width="70.6" height="70.6" transform="rotate(-90 1003.8 140.8)" fill="white"/>
<rect x="933.195" y="70.2003" width="70.6" height="70.6" transform="rotate(-90 933.195 70.2003)" fill="white"/>
<rect x="792" y="211.4" width="70.6" height="70.6" transform="rotate(-90 792 211.4)" fill="white"/>
<rect x="862.602" y="140.8" width="70.6" height="70.6" transform="rotate(-90 862.602 140.8)" fill="white"/>
<rect x="792" y="70.1998" width="70.6" height="70.6" transform="rotate(-90 792 70.1998)" fill="white"/>
<rect x="651.195" y="211.4" width="70.6" height="70.6" transform="rotate(-90 651.195 211.4)" fill="white"/>
<rect x="721.797" y="140.8" width="70.6" height="70.6" transform="rotate(-90 721.797 140.8)" fill="white"/>
<rect x="651.195" y="70.2003" width="70.6" height="70.6" transform="rotate(-90 651.195 70.2003)" fill="white"/>
<rect x="510" y="211.4" width="70.6" height="70.6" transform="rotate(-90 510 211.4)" fill="white"/>
<rect x="580.602" y="140.8" width="70.6" height="70.6" transform="rotate(-90 580.602 140.8)" fill="white"/>
<rect x="510" y="70.1998" width="70.6" height="70.6" transform="rotate(-90 510 70.1998)" fill="white"/>
<rect x="369.195" y="211.4" width="70.6" height="70.6" transform="rotate(-90 369.195 211.4)" fill="white"/>
<rect x="439.797" y="140.8" width="70.6" height="70.6" transform="rotate(-90 439.797 140.8)" fill="white"/>
<rect x="369.195" y="70.2003" width="70.6" height="70.6" transform="rotate(-90 369.195 70.2003)" fill="white"/>
<rect x="228" y="211.4" width="70.6" height="70.6" transform="rotate(-90 228 211.4)" fill="white"/>
<rect x="298.602" y="140.8" width="70.6" height="70.6" transform="rotate(-90 298.602 140.8)" fill="white"/>
<rect x="228" y="70.1998" width="70.6" height="70.6" transform="rotate(-90 228 70.1998)" fill="white"/>
<rect x="87.1953" y="211.4" width="70.6" height="70.6" transform="rotate(-90 87.1953 211.4)" fill="white"/>
<rect x="157.797" y="140.8" width="70.6" height="70.6" transform="rotate(-90 157.797 140.8)" fill="white"/>
<rect x="87.1953" y="70.2003" width="70.6" height="70.6" transform="rotate(-90 87.1953 70.2003)" fill="white"/>
<rect x="-54" y="211.4" width="70.6" height="70.6" transform="rotate(-90 -54 211.4)" fill="white"/>
<rect x="16.6016" y="140.8" width="70.6" height="70.6" transform="rotate(-90 16.6016 140.8)" fill="white"/>
<rect x="-54" y="70.1998" width="70.6" height="70.6" transform="rotate(-90 -54 70.1998)" fill="white"/>
</svg>
