<svg width="1920" height="84" viewBox="0 0 1920 84" fill="none" xmlns="http://www.w3.org/2000/svg">
<g clip-path="url(#clip0_256_1456)">
<mask id="path-1-outside-1_256_1456" maskUnits="userSpaceOnUse" x="0" y="0" width="1978" height="84" fill="black">
<rect fill="white" width="1978" height="84"/>
<path d="M0 0L1978 0V80H0L0 0Z"/>
</mask>
<path d="M0 0L1978 0V80H0L0 0Z" fill="#FC6002"/>
<rect x="1086.03" y="83.6064" width="43.3881" height="43.5196" transform="rotate(-90 1086.03 83.6064)" fill="white"/>
<rect x="1129.55" y="40.2188" width="43.3881" height="43.5196" transform="rotate(-90 1129.55 40.2188)" fill="white"/>
<rect x="1172.82" y="83.6064" width="43.3881" height="43.5196" transform="rotate(-90 1172.82 83.6064)" fill="white"/>
<rect x="1259.62" y="83.6064" width="43.3881" height="43.5196" transform="rotate(-90 1259.62 83.6064)" fill="white"/>
<rect x="1346.41" y="83.6064" width="43.3881" height="43.5196" transform="rotate(-90 1346.41 83.6064)" fill="white"/>
<rect x="1433.21" y="83.6064" width="43.3881" height="43.5196" transform="rotate(-90 1433.21 83.6064)" fill="white"/>
<rect x="1520" y="83.6064" width="43.3881" height="43.5196" transform="rotate(-90 1520 83.6064)" fill="white"/>
<rect x="1606.53" y="83.6064" width="43.3881" height="43.5196" transform="rotate(-90 1606.53 83.6064)" fill="white"/>
<rect x="1693.05" y="83.6064" width="43.3881" height="43.5196" transform="rotate(-90 1693.05 83.6064)" fill="white"/>
<rect x="1779.57" y="83.6064" width="43.3881" height="43.5196" transform="rotate(-90 1779.57 83.6064)" fill="white"/>
<rect x="1866.09" y="83.6064" width="43.3881" height="43.5196" transform="rotate(-90 1866.09 83.6064)" fill="white"/>
<rect x="1216.34" y="40.2188" width="43.3881" height="43.5196" transform="rotate(-90 1216.34 40.2188)" fill="white"/>
<rect x="1303.14" y="40.2188" width="43.3881" height="43.5196" transform="rotate(-90 1303.14 40.2188)" fill="white"/>
<rect x="1389.93" y="40.2188" width="43.3881" height="43.5196" transform="rotate(-90 1389.93 40.2188)" fill="white"/>
<rect x="1476.73" y="40.2188" width="43.3881" height="43.5196" transform="rotate(-90 1476.73 40.2188)" fill="white"/>
<rect x="1563.52" y="40.2188" width="43.3881" height="43.5196" transform="rotate(-90 1563.52 40.2188)" fill="white"/>
<rect x="1650.05" y="40.2188" width="43.3881" height="43.5196" transform="rotate(-90 1650.05 40.2188)" fill="white"/>
<rect x="1736.57" y="40.2188" width="43.3881" height="43.5196" transform="rotate(-90 1736.57 40.2188)" fill="white"/>
<rect x="1823.09" y="40.2188" width="43.3881" height="43.5196" transform="rotate(-90 1823.09 40.2188)" fill="white"/>
<rect x="1909.61" y="40.2188" width="43.3881" height="43.5196" transform="rotate(-90 1909.61 40.2188)" fill="white"/>
<rect x="998.991" y="83.6064" width="43.3881" height="43.5196" transform="rotate(-90 998.991 83.6064)" fill="white"/>
<rect x="1042.51" y="40.2188" width="43.3881" height="43.5196" transform="rotate(-90 1042.51 40.2188)" fill="white"/>
<rect x="912.194" y="83.6064" width="43.3881" height="43.5196" transform="rotate(-90 912.194 83.6064)" fill="white"/>
<rect x="955.716" y="40.2188" width="43.3881" height="43.5196" transform="rotate(-90 955.716 40.2188)" fill="white"/>
<rect x="825.159" y="83.6064" width="43.3881" height="43.5196" transform="rotate(-90 825.159 83.6064)" fill="white"/>
<rect x="868.681" y="40.2188" width="43.3881" height="43.5196" transform="rotate(-90 868.681 40.2188)" fill="white"/>
<rect x="738.363" y="83.6064" width="43.3881" height="43.5196" transform="rotate(-90 738.363 83.6064)" fill="white"/>
<rect x="781.884" y="40.2188" width="43.3881" height="43.5196" transform="rotate(-90 781.884 40.2188)" fill="white"/>
<rect x="651.327" y="83.6064" width="43.3881" height="43.5196" transform="rotate(-90 651.327 83.6064)" fill="white"/>
<rect x="694.849" y="40.2188" width="43.3881" height="43.5196" transform="rotate(-90 694.849 40.2188)" fill="white"/>
<rect x="564.531" y="83.6074" width="43.3881" height="43.5196" transform="rotate(-90 564.531 83.6074)" fill="white"/>
<rect x="608.053" y="40.2197" width="43.3881" height="43.5196" transform="rotate(-90 608.053 40.2197)" fill="white"/>
<rect x="477.495" y="83.6074" width="43.3881" height="43.5196" transform="rotate(-90 477.495 83.6074)" fill="white"/>
<rect x="521.017" y="40.2197" width="43.3881" height="43.5196" transform="rotate(-90 521.017 40.2197)" fill="white"/>
<rect x="390.699" y="83.6064" width="43.3881" height="43.5196" transform="rotate(-90 390.699 83.6064)" fill="white"/>
<rect x="434.221" y="40.2188" width="43.3881" height="43.5196" transform="rotate(-90 434.221 40.2188)" fill="white"/>
<rect x="303.663" y="83.6064" width="43.3881" height="43.5196" transform="rotate(-90 303.663 83.6064)" fill="white"/>
<rect x="347.185" y="40.2188" width="43.3881" height="43.5196" transform="rotate(-90 347.185 40.2188)" fill="white"/>
<rect x="216.867" y="83.6064" width="43.3881" height="43.5196" transform="rotate(-90 216.867 83.6064)" fill="white"/>
<rect x="260.389" y="40.2188" width="43.3881" height="43.5196" transform="rotate(-90 260.389 40.2188)" fill="white"/>
<rect x="129.831" y="83.6064" width="43.3881" height="43.5196" transform="rotate(-90 129.831 83.6064)" fill="white"/>
<rect x="173.353" y="40.2188" width="43.3881" height="43.5196" transform="rotate(-90 173.353 40.2188)" fill="white"/>
<rect x="43.0361" y="83.6064" width="43.3881" height="43.5196" transform="rotate(-90 43.0361 83.6064)" fill="white"/>
<rect x="86.5576" y="40.2188" width="43.3881" height="43.5196" transform="rotate(-90 86.5576 40.2188)" fill="white"/>
<rect x="-0.478516" y="40.2188" width="43.3881" height="43.5196" transform="rotate(-90 -0.478516 40.2188)" fill="white"/>
</g>
<path d="M1978 76H0L0 84H1978V76Z" fill="black" mask="url(#path-1-outside-1_256_1456)"/>
<defs>
<clipPath id="clip0_256_1456">
<path d="M0 0L1978 0V80H0L0 0Z" fill="white"/>
</clipPath>
</defs>
</svg>
